<svg xmlns="http://www.w3.org/2000/svg" viewBox="0 0 146 44" class="sc-231a1e38-0 dPwWVs desktop-icon" color="text" width="200px"><g><g><path fill="#0052FF" d="M42.126 21.916a21.857 21.857 0 01-6.418 15.498 21.98 21.98 0 01-4.18 3.274 21.812 21.812 0 01-11.316 3.144H2.304A1.504 1.504 0 01.8 42.328V1.504C.8.674 1.474 0 2.304 0H20.21c12.104 0 21.916 9.812 21.916 21.916z"></path><path fill="#fff" d="M31.526 40.688a21.812 21.812 0 01-11.316 3.144H2.438c.138-.738 1.394-7.064 4.776-12.328C8.404 29.65 8.262 22.81 9.05 19.66c.788-3.152 3.902-10.456 11.996-10.78 7.334-.292 9.05 6.65 9.576 9.98.054.346.096.65.13.906v.008c.254 1.952.07 6.622-.082 9.674-.016.346-.034.67-.05.968-.04.75-.072 1.328-.086 1.634-.068 1.438-.104 5.498.99 8.638h.002z"></path><path fill="#fff" d="M29.694 19.74c-2.004-.022-4.012.2-5.998.448-2.62.326-5.266.816-7.566 2.174-1.506.888-2.812 2.17-2.758 4.034.002.1.01.2.02.3.214 2.256 2.606 3.518 7.064 3.626 4.458.108 14.37-.886 17.108-3.276 1.22-1.064 1.458-2.554.692-3.962-.768-1.412-2.32-2.284-3.816-2.714-1.528-.438-3.128-.612-4.744-.63h-.002z"></path><path fill="#0052FF" d="M30.76 19.774c-.35-.02-.7-.032-1.052-.036-2.004-.022-4.012.2-5.998.448-2.622.328-5.266.818-7.566 2.174-1.506.888-2.812 2.17-2.758 4.034.004.1.01.2.018.3.028.298.094.578.2.84-.328-.688-.536-1.412-.436-2.196.116-.9.562-1.738 1.148-2.422.864-1.008 2.026-1.828 3.248-2.34 2.522-1.056 5.492-1.286 8.188-1.502a62.147 62.147 0 014.882-.218l.126.914v.004z"></path><path fill="#0052FF" d="M30.732 29.438l-.074.97s-2.55.61-8.836.772c-6.19.158-7.446-2.076-7.484-2.144 1.168.836 3.08 1.302 5.71 1.366 2.566.062 6.91-.238 10.682-.962l.002-.002z"></path><path fill="#0052FF" d="M21.658 14.95a1.755 1.755 0 11-3.436-.5.861.861 0 101.202-1.186 1.755 1.755 0 012.234 1.686z"></path><path fill="#0052FF" d="M28.49 14.736a1.675 1.675 0 11-3.274-.49.862.862 0 101.236-1.144 1.675 1.675 0 012.038 1.634z"></path></g></g></svg>