<svg width="21" height="22" viewBox="0 0 21 22" fill="none" xmlns="http://www.w3.org/2000/svg">
<path d="M9.46289 21.4346H11.4355C11.8132 21.4346 12.1371 21.3288 12.4072 21.1172C12.6774 20.9056 12.8548 20.6175 12.9395 20.253L13.3594 18.4268L13.6719 18.3194L15.2637 19.2959C15.5762 19.4977 15.9049 19.5759 16.25 19.5303C16.5951 19.4847 16.9011 19.3284 17.168 19.0616L18.5352 17.7041C18.8021 17.4371 18.9583 17.1312 19.0039 16.7862C19.0495 16.4411 18.9714 16.1123 18.7695 15.7998L17.7734 14.2178L17.8906 13.9248L19.7168 13.4952C20.0749 13.4105 20.3613 13.2314 20.5762 12.958C20.791 12.6846 20.8984 12.3623 20.8984 11.9912V10.0576C20.8984 9.68652 20.791 9.36426 20.5762 9.09082C20.3613 8.81738 20.0749 8.63835 19.7168 8.55371L17.9102 8.11425L17.7832 7.80175L18.7793 6.21972C18.9811 5.90722 19.0592 5.58008 19.0137 5.23828C18.9681 4.89648 18.8118 4.58887 18.5449 4.31543L17.1777 2.94824C16.9173 2.68782 16.6146 2.53483 16.2695 2.48925C15.9245 2.44368 15.5957 2.51855 15.2832 2.71386L13.6914 3.69043L13.3594 3.56347L12.9395 1.7373C12.8548 1.37923 12.6774 1.09277 12.4072 0.87793C12.1371 0.663086 11.8132 0.555664 11.4355 0.555664H9.46289C9.08528 0.555664 8.76139 0.663086 8.49121 0.87793C8.22103 1.09277 8.04362 1.37923 7.95898 1.7373L7.5293 3.56347L7.19727 3.69043L5.61523 2.71386C5.29622 2.51855 4.96582 2.44368 4.62402 2.48925C4.28223 2.53483 3.97787 2.68782 3.71094 2.94824L2.35352 4.31543C2.08008 4.58887 1.9222 4.89648 1.87988 5.23828C1.83757 5.58008 1.91732 5.90722 2.11914 6.21972L3.10547 7.80175L2.98828 8.11425L1.18164 8.55371C0.817057 8.63835 0.528972 8.81738 0.317383 9.09082C0.105794 9.36426 0 9.68652 0 10.0576V11.9912C0 12.3623 0.107422 12.6846 0.322266 12.958C0.537109 13.2314 0.823567 13.4105 1.18164 13.4952L3.00781 13.9248L3.11523 14.2178L2.12891 15.7998C1.92708 16.1123 1.84733 16.4411 1.88965 16.7862C1.93196 17.1312 2.08984 17.4371 2.36328 17.7041L3.7207 19.0616C3.98763 19.3284 4.29362 19.4847 4.63867 19.5303C4.98372 19.5759 5.31576 19.4977 5.63477 19.2959L7.2168 18.3194L7.5293 18.4268L7.95898 20.253C8.04362 20.6175 8.22103 20.9056 8.49121 21.1172C8.76139 21.3288 9.08528 21.4346 9.46289 21.4346ZM9.61914 19.9112C9.45638 19.9112 9.36198 19.8363 9.33594 19.6866L8.75 17.2647C8.45052 17.1931 8.16569 17.1003 7.89551 16.9864C7.62532 16.8724 7.38606 16.7504 7.17773 16.6202L5.04883 17.9287C4.93164 18.0133 4.8112 17.9971 4.6875 17.8799L3.53516 16.7276C3.43099 16.6299 3.41797 16.5094 3.49609 16.3662L4.80469 14.2569C4.69401 14.0485 4.58008 13.8109 4.46289 13.544C4.3457 13.277 4.24805 12.9938 4.16992 12.6944L1.74805 12.1182C1.59831 12.0921 1.52344 11.9977 1.52344 11.835V10.2041C1.52344 10.0479 1.59831 9.95345 1.74805 9.92089L4.16016 9.33496C4.23828 9.01595 4.34082 8.71972 4.46777 8.44628C4.59472 8.17285 4.70052 7.94499 4.78516 7.76269L3.48633 5.65332C3.4017 5.51009 3.41146 5.38314 3.51562 5.27246L4.67773 4.13964C4.79492 4.03548 4.91862 4.0192 5.04883 4.09082L7.1582 5.37011C7.36653 5.25293 7.6123 5.13574 7.89551 5.01855C8.17871 4.90137 8.4668 4.80371 8.75977 4.72558L9.33594 2.30371C9.36198 2.15397 9.45638 2.0791 9.61914 2.0791H11.2793C11.442 2.0791 11.5332 2.15397 11.5527 2.30371L12.1484 4.74511C12.4544 4.82324 12.7392 4.91927 13.0029 5.0332C13.2666 5.14714 13.5058 5.2627 13.7207 5.37988L15.8398 4.09082C15.9765 4.0192 16.1035 4.03548 16.2207 4.13964L17.373 5.27246C17.4837 5.38314 17.4935 5.51009 17.4023 5.65332L16.1035 7.76269C16.1946 7.94499 16.3021 8.17285 16.4258 8.44628C16.5495 8.71972 16.6504 9.01595 16.7285 9.33496L19.1504 9.92089C19.3001 9.95345 19.375 10.0479 19.375 10.2041V11.835C19.375 11.9977 19.3001 12.0921 19.1504 12.1182L16.7188 12.6944C16.6407 12.9938 16.5446 13.277 16.4307 13.544C16.3168 13.8109 16.2012 14.0485 16.084 14.2569L17.3926 16.3662C17.4772 16.5094 17.4642 16.6299 17.3535 16.7276L16.2109 17.8799C16.0872 17.9971 15.9635 18.0133 15.8398 17.9287L13.7109 16.6202C13.5026 16.7504 13.2649 16.8724 12.998 16.9864C12.7311 17.1003 12.4479 17.1931 12.1484 17.2647L11.5527 19.6866C11.5332 19.8363 11.442 19.9112 11.2793 19.9112H9.61914ZM10.4492 14.7256C11.1328 14.7256 11.7562 14.5579 12.3193 14.2227C12.8825 13.8874 13.3317 13.4366 13.667 12.8702C14.0023 12.3037 14.1699 11.6787 14.1699 10.9952C14.1699 10.3181 14.0023 9.69792 13.667 9.13476C13.3317 8.57162 12.8825 8.1224 12.3193 7.78711C11.7562 7.45183 11.1328 7.28418 10.4492 7.28418C9.76562 7.28418 9.14225 7.45183 8.5791 7.78711C8.01595 8.1224 7.56511 8.57162 7.22656 9.13476C6.88802 9.69792 6.71875 10.3181 6.71875 10.9952C6.71875 11.6787 6.88802 12.3021 7.22656 12.8653C7.56511 13.4284 8.01595 13.8792 8.5791 14.2178C9.14225 14.5563 9.76562 14.7256 10.4492 14.7256ZM10.4492 13.2119C10.0456 13.2119 9.67611 13.1126 9.34082 12.9141C9.00553 12.7155 8.73861 12.4485 8.54004 12.1133C8.34147 11.778 8.24219 11.4053 8.24219 10.9952C8.24219 10.5915 8.34147 10.2236 8.54004 9.8916C8.73861 9.55957 9.00553 9.29427 9.34082 9.0957C9.67611 8.89714 10.0456 8.79785 10.4492 8.79785C10.8463 8.79785 11.2109 8.89714 11.543 9.0957C11.875 9.29427 12.1403 9.55957 12.3389 9.8916C12.5374 10.2236 12.6367 10.5915 12.6367 10.9952C12.6367 11.3988 12.5374 11.7682 12.3389 12.1036C12.1403 12.4388 11.875 12.7074 11.543 12.9092C11.2109 13.111 10.8463 13.2119 10.4492 13.2119Z" fill="white"/>
</svg>
